<?xml version="1.0" standalone="yes"?>
<svg xmlns="http://www.w3.org/2000/svg" width="1330" height="751">
<path style="fill:#000000; stroke:none;" d="M189 1L189 5L191 10L196 12L198 12L199 11L202 11L203 11L203 10L207 11L208 11L211 9L223 9L225 1L189 1M1236 1L1236 7L1237 7L1236 1M1285 1L1285 8L1283 8L1283 14L1277 14L1277 21L1276 21L1276 14L1274 14L1274 8L1271 8L1271 9L1271 14L1269 15L1269 16L1269 21L1263 21L1263 15L1262 14L1256 14L1256 8L1255 8L1255 14L1256 14L1256 21L1253 21L1253 22L1253 27L1256 30L1263 30L1263 28L1265 28L1280 28L1280 21L1283 21L1283 22L1283 28L1288 27L1289 27L1293 28L1293 34L1292 34C1292 37.3627 1291.28 40.2037 1295 41L1295 42L1282 43L1282 45L1283 46L1289 46L1289 47L1276 47L1276 48L1282 48L1283 50L1284 50L1289 50L1289 61L1287 61L1287 67L1284 68L1276 68L1276 87L1289 87L1289 93L1288 94L1286 94L1275 93L1276 96L1276 104L1273 106L1273 114L1274 114L1274 119L1275 120L1277 120L1283 120L1283 133L1282 134L1276 134L1276 147L1269 147L1269 151L1263 151L1262 148L1262 140L1256 137L1255 137L1254 140L1255 147L1256 147L1256 167L1258 167L1258 161L1259 160L1263 160L1263 158L1269 158L1267 160L1267 167L1265 169L1263 169L1261 167L1260 170L1249 172L1244 170L1241 167L1236 168L1233 163L1227 163L1227 162L1220 162L1218 164L1213 164L1212 155L1213 152L1211 150L1212 144L1209 141L1206 142L1205 140L1204 140L1201 142L1197 147L1197 153L1196 153L1195 161L1195 162L1195 169L1193 165L1183 164L1182 164L1180 171L1176 175L1176 182L1173 180L1173 177L1177 172L1177 167L1176 163L1178 160L1176 158L1176 153L1175 153L1175 149L1173 147L1171 147L1170 145L1165 147L1164 150L1163 150L1163 152L1161 154L1161 160L1160 160L1159 172L1156 174L1153 174L1152 175L1148 179L1147 183L1146 183L1145 185L1145 190L1148 192L1152 192L1152 191L1156 191L1161 189L1164 187L1164 186L1166 185L1169 185L1171 187L1179 186L1185 188L1188 188L1188 187L1192 187L1192 186L1197 186L1201 183L1202 186L1205 187L1210 187L1210 188L1217 188L1220 185L1223 185L1225 183L1229 183L1229 182L1236 181L1232 183L1232 184L1236 184L1235 187L1242 186L1242 187L1237 187L1237 188L1242 188L1242 193L1241 193L1238 200L1239 203L1240 204L1241 205L1245 205L1249 202L1256 203L1253 200L1252 197L1254 194L1260 193L1260 200L1263 196L1271 195L1273 197L1274 198L1276 200L1276 207L1263 207L1263 214L1262 214L1265 220L1265 227L1269 227L1269 233L1263 233L1263 240L1269 240L1269 244L1263 244L1261 240L1261 233L1258 233L1258 234L1258 240L1256 240L1256 238L1256 231L1250 231L1249 228L1244 233L1253 233L1253 240L1256 240L1256 241L1256 247L1262 247L1262 248L1269 248L1269 251L1268 251L1263 251L1262 252L1262 256L1266 256L1269 260L1269 264L1263 264L1262 267L1262 273L1263 273L1263 286L1256 286L1256 300L1257 300L1257 306L1262 306L1262 307L1256 307L1256 313L1253 313L1253 312L1253 306L1252 306L1252 313L1247 313L1247 306L1249 306L1249 300L1235 300L1235 306L1239 307L1239 313L1229 313L1229 319L1236 319L1236 320L1243 320L1243 322L1241 322L1238 322L1236 322L1236 326L1237 326L1237 333L1236 333L1236 342L1230 342L1223 346L1224 341L1224 340L1223 334L1222 334L1222 346L1220 346L1220 348L1220 351L1220 353L1223 353L1223 357L1229 357L1230 361L1236 361L1236 364L1235 364L1230 364L1229 366L1228 366L1216 366L1216 373L1223 372L1224 379L1223 379L1223 375L1216 375L1216 377L1214 377L1203 377L1203 375L1201 375L1198 375L1196 375L1196 377L1198 377L1201 377L1203 377L1203 379L1205 379L1208 379L1210 379L1209 383L1203 383L1200 386L1200 387L1203 390L1197 392L1194 390L1190 393L1183 393L1185 399L1184 402L1184 412L1183 412L1182 399L1181 399L1180 401L1180 406L1170 406L1170 422C1173.19 421.987 1175.27 422.403 1176 419L1177 419L1176 428L1170 428L1169 432L1163 432L1163 433L1157 433L1157 439L1150 439L1150 441L1148 441L1145 441L1143 441L1143 445L1139 445L1138 447L1137 447L1129 450L1128 447L1125 447L1124 450L1115 447L1116 450L1108 450L1107 454L1103 452L1105 455L1104 460L1101 465L1098 465L1097 468L1097 470L1098 474L1100 476L1101 483L1098 483L1098 492L1090 490L1090 512L1086 512L1086 518L1083 520L1084 517L1083 514L1077 514L1077 512L1073 512L1075 520L1070 525L1073 526L1070 532L1063 532L1063 538L1058 538L1057 548L1050 545L1050 538L1046 539L1046 545L1043 549L1037 551L1033 551L1036 552L1036 558L1034 558L1037 563L1037 559L1038 559L1038 565L1042 565L1041 568L1040 569L1039 570L1035 570L1030 564L1030 572L1031 572L1031 578L1017 578L1017 585L1013 585L1013 591L1012 592L1010 592L1004 592L1004 596L1001 598L993 598L993 592L984 598L984 611L980 611L980 618L969 618L968 611L965 612L964 620L970 620L970 621L951 621L950 625L941 625L941 626L944 630L937 629L935 625L934 625L932 626L931 631L927 631L926 632L926 638L925 638L925 643L924 643L924 636L918 638L917 642L904 642L904 645L903 645L897 645L898 649L891 650L891 658L890 658L890 648L888 645L891 643L889 643L891 641L891 636L890 636L890 640L889 640L889 630L893 626L894 630L899 630L901 628L900 623L895 619L889 619L886 620L885 623L884 623L883 625L882 628L882 633L880 636L880 638L881 644L878 645L879 648L878 662L871 662L874 665L872 668L869 667L857 668L853 663L857 662L858 657L855 658L856 655L858 656L859 655L860 650L863 652L861 650L862 645L860 641L859 640L857 639L853 639L851 641L851 642L850 642L850 643L849 643L849 644L848 644L848 645L845 647L845 649L844 650L840 652L840 658L833 661L832 658L833 653L831 650L831 635L833 633L833 626L829 626L827 628L825 633L826 656L825 659L826 666L824 674L825 674L826 672L825 675L824 680C820.806 680.013 818.729 679.597 818 683L815 682L818 678L818 674L815 674L815 673L816 665L816 662L815 662L816 655L814 652L810 652L808 657L808 661L805 665L803 665L802 664L802 660L800 659L800 655L799 655L799 651L796 650L793 649L791 649L788 650L783 652L783 624L781 622L778 623L778 629L777 629L776 645L776 651L773 651L772 647L768 646L764 650L764 651L768 652L768 656L767 659L763 666L759 667L760 664L757 662L755 662L751 664L746 669L746 671L743 672L737 672L737 670L737 666L736 666L737 662L736 660L737 656L740 653L743 652L744 648L750 651L751 650L751 648L750 644L747 640L739 641L739 643L736 644L735 648L734 648L733 650L733 654L730 657L729 660L729 666L728 671L730 675L733 678L738 680L745 680L747 676L750 678L752 676L759 675L760 675L763 676L766 675L769 673L767 671L767 670L770 668L771 664L773 664L776 658L780 664L784 660L793 656L794 661L796 663L797 671L800 671L802 674L808 674L809 677L809 684L805 685L804 690L796 691L796 689L793 689L794 692L793 692L794 693L794 695L791 692L785 692L784 694L783 694L778 694L778 698L775 698L775 699L775 704L784 704L784 711L778 711L778 709L776 709L773 709L769 711L769 704L764 704L764 705L758 704L758 709L745 709L745 711L747 711L758 711L758 714L757 714L751 714L751 715L745 715L745 717L743 717L740 717L738 717L738 715L736 715L733 715L731 715L730 719L725 723L725 718L722 719L718 723L718 719L716 721L715 721L715 722L714 722L713 724L705 724L705 731L698 731L698 728L697 728L691 728L691 731L690 731L685 731L685 733L683 733L672 733L671 738L665 738L665 735L664 735L652 735L651 738L649 738L648 739L648 741L647 742L642 741L642 740L639 739L638 742L632 742L632 740L630 740L627 740L625 740L625 744L623 744L623 750L631 750L631 744L638 744L638 745L632 745L632 750L645 750L645 744L648 745L648 750L1329 750L1329 1L1296 1L1296 2L1285 1M1263 5L1263 8L1264 8L1269 8L1269 5L1268 5L1263 5z"/>
<path style="fill:#ffffff; stroke:none;" d="M1296 9L1296 11L1302 11L1302 9L1296 9M1283 14L1283 21L1285 21L1285 19L1285 16L1285 14L1283 14M1256 21L1256 25L1263 25L1263 21L1256 21M1296 21L1296 26L1301 21L1296 21z"/>
<path style="fill:#000000; stroke:none;" d="M1248 28L1248 34L1250 34L1250 28L1248 28M1269 30L1269 34L1263 34L1263 36L1269 36L1269 34L1273 34L1273 41L1283 41L1283 35L1282 34L1276 34L1276 30L1269 30M1276 53L1276 54L1282 54L1282 53L1276 53M1255 54L1255 61L1256 61L1255 54z"/>
<path style="fill:#ffffff; stroke:none;" d="M1302 54L1302 60L1303 60L1302 54M1296 61L1296 62L1302 62L1302 61L1296 61M1283 70L1282 74L1286 77L1289 81L1292 80L1292 74L1296 74L1296 72L1294 72L1291 72L1289 74L1283 70z"/>
<path style="fill:#000000; stroke:none;" d="M1267 76L1264 80L1269 81L1269 76L1267 76M1255 87L1255 94L1256 94L1255 87z"/>
<path style="fill:#ffffff; stroke:none;" d="M1298.67 93.3333L1299.33 93.6667L1298.67 93.3333M1293 94L1293 96L1296 96L1296 94L1295 94L1293 94z"/>
<path style="fill:#000000; stroke:none;" d="M295 98L292 99L290 101L286 101L283 105L282 110L280 111L280 113L278 114L278 116L275 118L275 121L273 122L272 125L272 129L269 131L267 135L267 138L265 140L265 146L261 147L258 150L258 151L263 154L262 157L262 168L259 171L259 176L258 176L258 186L257 186L257 197L256 197L256 203L252 206L250 211L250 215L248 217L248 222L247 222L247 226L245 228L245 232L244 232L244 246L243 246L243 252L242 252L242 258L241 258L241 277L240 277L240 287L239 287L239 301L238 301L238 336L237 336L237 352L236 352L236 367L235 367L235 374L233 376L234 379L234 384L233 384L233 396L234 396L233 403L234 406L234 407L233 411L232 411L232 423L233 423L233 432L232 432L232 441L231 441L232 466L232 467L231 469L231 498L230 498L230 512L229 512L230 518L230 519L229 521L230 537L230 539L229 540L229 550L230 550L230 566L231 566L231 573L233 575L250 575L250 574L258 574L260 572L259 569L260 556L260 550L259 542L260 542L260 499L261 499L261 459L262 459L262 436L263 436L263 404L266 401L268 396L269 390L270 389L272 389L273 386L276 385L280 381L280 379L283 377L283 374L285 373L285 371L287 370L289 364L291 363L292 359L296 356L296 354L298 353L298 351L299 350L301 349L302 348L302 346L303 345L305 343L306 343L306 342L307 342L310 339L310 337L311 336L313 335L314 334L314 332L315 331L317 329L318 329L318 328L319 328L320 326L322 326L323 325L324 324L325 323L325 321L326 320L328 318L329 318L329 317L330 317L332 314L334 314L337 311L341 311L344 308L352 311L355 315L357 320L358 323L358 328L360 331L360 363L361 363L361 424L360 424L360 448L361 448L361 463L360 463L360 470L361 470L360 485L360 488L361 488L361 504L362 504L362 520L363 520L363 524L362 524L362 538L363 538L363 556L364 556L364 560L366 562L370 562L370 561L377 561L380 560L380 559L383 558L387 558L390 557L395 555L395 548L394 548L394 543L393 543L393 524L392 524L391 512L392 509L391 478L390 478L390 468L391 468L390 464L390 463L391 459L390 459L390 414L391 414L390 408L390 406L391 405L391 402L391 401L390 401L390 380L391 380L391 376L390 376L390 369L389 369L389 353L390 353L390 339L389 339L389 328L388 328L388 324L387 324L387 309L385 308L385 304L384 304L384 298L383 298L383 293L382 290L380 288L380 286L379 286L379 284L376 282L376 280L375 279L372 276L370 276L367 273L359 273L356 274L356 275L353 275L351 277L349 277L349 278L346 280L341 281L340 283L338 283L337 285L333 286L332 288L330 288L326 293L322 294L320 296L320 297L319 297L319 298L314 301L313 304L310 305L308 307L308 308L307 308L307 309L306 309L306 310L305 310L305 311L304 311L304 312L303 312L303 313L302 313L302 314L301 314L301 315L298 317L298 319L297 320L294 321L293 324L291 325L290 326L290 328L289 329L283 333L283 328L282 328L282 324L281 324L281 309L280 309L280 302L279 302L279 297L278 297L278 262L279 262L279 256L280 256L280 246L281 246L281 241L282 241L282 233L283 233L283 227L285 225L286 222L286 215L287 215L287 206L288 206L288 200L291 198L291 190L292 190L292 185L293 185L293 180L294 180L294 174L296 171L296 167L298 164L298 159L303 150L312 150L312 149L320 149L320 148L327 147L326 144L320 144L320 145L311 145L311 146L304 146L303 145L303 141L305 138L305 132L306 132L306 128L308 125L308 120L309 120L309 116L310 116L311 107L311 106L310 103L308 101L302 100L300 98L295 98z"/>
<path style="fill:#ffffff; stroke:none;" d="M1289 101L1292 98L1289 101z"/>
<path style="fill:#000000; stroke:none;" d="M136 106L136 127L135 127L135 135L134 138L130 139L129 141L127 141L127 142L125 142L123 143L123 147L125 149L132 149L134 151L135 156L136 156L136 159L137 159L137 162L139 164L140 164L140 165L141 165L144 168L153 168L151 165L148 165L146 164L142 159L142 149L140 148L140 144L144 142L150 142L150 141L169 142L170 145L169 153L169 155L170 158L172 160L181 160L186 157L187 153L188 153L188 151L189 149L192 147L192 137L190 134L189 133L188 132L185 131L171 131L167 133L166 135L164 136L153 136L153 137L142 137L141 133L142 126L143 126L143 112L142 112L142 108L136 106z"/>
<path style="fill:#ffffff; stroke:none;" d="M1289 107L1288 108L1288 113L1289 113L1289 108L1296 108L1296 107L1289 107M1311 108L1311 113L1312 113L1311 108z"/>
<path style="fill:#000000; stroke:none;" d="M64 110L61 112L59 115L59 117L57 118L57 120L56 121L52 125L45 127L44 123L42 122L41 117L37 113L31 113L30 116L25 118L25 125L26 125L26 137L25 137L25 142L23 144L24 147L24 148L22 151L22 157L24 159L29 158L30 153L31 153L31 150L33 148L32 144L33 139L34 139L34 133L35 133L36 128L39 131L42 132L50 132L50 131L54 131L59 128L59 140L58 140L58 144L59 144L59 152L61 155L62 156L64 157L71 157L71 156L75 156L75 155L79 155L81 157L83 157L83 158L85 159L94 160L95 160L99 159L101 157L103 157L103 156L105 156L107 154L107 153L108 153L108 152L111 149L110 135L106 133L103 132L98 132L95 130L91 130L91 131L85 132L84 133L84 135L80 138L78 143L78 148L77 148L77 152L76 153L72 153L72 152L68 152L66 149L65 144L65 141L66 141L66 135L68 132L68 128L69 128L69 123L70 123L70 115L69 115L69 111L64 110z"/>
<path style="fill:#ffffff; stroke:none;" d="M1276 110L1276 111L1283 111L1283 110L1276 110z"/>
<path style="fill:#000000; stroke:none;" d="M1269 114L1269 118L1263 118L1263 119L1265 120L1271 120L1271 114L1269 114M4 115L3 118L4 115M531 124L524 125L524 126L515 126L515 127L510 127L510 128L497 128L497 129L491 130L493 135L497 134L497 133L499 133L501 131L507 131L507 130L512 130L512 129L519 129L519 128L523 128L524 129L524 131L525 167L529 167L528 164L528 127L538 127L538 126L552 125L552 124L531 124M237 126L234 129L229 130L227 133L222 135L220 133L220 132L219 132L219 131L212 128L211 129L211 132L214 133L215 134L217 137L217 138L215 141L212 142L206 147L205 148L203 151L202 154L202 157L201 160L204 164L209 164L212 163L212 162L215 162L218 160L221 157L221 155L223 154L224 151L224 139L229 137L230 135L232 135L233 133L235 133L235 132L241 131L240 126L237 126M1269 130L1269 131L1276 131L1276 130L1269 130z"/>
<path style="fill:#ffffff; stroke:none;" d="M172 136L174 140L175 143L175 154L177 156L181 155L182 152L185 151L187 146L188 142L188 141L187 138L183 135L175 135L172 136z"/>
<path style="fill:#000000; stroke:none;" d="M1263 135L1263 136L1269 136L1269 135L1263 135z"/>
<path style="fill:#ffffff; stroke:none;" d="M90 137L87 140L87 144L86 144L85 151L87 153L90 154L96 154L101 152L105 147L105 138L102 137L90 137z"/>
<path style="fill:#000000; stroke:none;" d="M898 137L899 141L904 142L903 138L898 137M713 139L712 142L712 143L713 145L713 148L713 150L714 150L714 155L708 155L708 156L701 155L700 158L704 161L705 161L707 159L714 158L715 164L716 164L716 172L717 172L718 177L720 177L721 176L720 173L720 157L723 156L726 156L726 155L732 154L733 154L739 152L731 152L731 153L726 153L726 154L719 154L718 153L717 149L717 147L718 144L716 139L713 139M856 139L853 142L853 144L852 145L851 146L848 147L848 149L842 150L840 143L837 143L837 144L836 147L836 152L833 156L833 167L831 173L834 172L835 166L837 163L838 149L843 153L847 152L849 149L851 149L854 147L854 156L855 156L855 161L856 161L859 167L858 164L858 157L857 157L856 139M1249.67 139.333L1250.33 139.667L1249.67 139.333M566 142L566 146L569 148L569 145L579 145L579 149L577 152L573 156L569 157L568 159L565 160L567 165L570 166L582 167L581 164L576 164L576 163L569 162L571 159L573 159L574 157L576 157L577 156L582 150L582 144L579 143L578 141L576 140L570 140L566 142z"/>
<path style="fill:#ffffff; stroke:none;" d="M215 146L213 148L213 149L212 149L212 150L207 153L206 159L207 160L209 160L213 158L214 156L217 155L219 150L218 146L215 146z"/>
<path style="fill:#000000; stroke:none;" d="M1236 146L1235 147L1235 154L1236 154L1236 147L1242 147L1242 146L1236 146z"/>
<path style="fill:#ffffff; stroke:none;" d="M1276 147L1276 149L1278 149L1281 149L1283 149L1283 147L1281 147L1278 147L1276 147z"/>
<path style="fill:#000000; stroke:none;" d="M874 149L869 152L867 156L867 159L865 161L865 166L864 166L864 170L865 173L868 176L874 175L876 173L876 172L877 172L877 171L879 169L881 169L885 173L891 172L893 170L897 170L901 172L901 171L899 170L899 165L901 162L902 162L903 160L904 154L900 153L899 156L898 156L897 158L896 161L896 165L893 168L891 168L890 170L884 170L882 162L880 162L879 163L877 169L873 173L868 173L867 172L867 170L867 167L867 165L868 165L868 161L870 159L870 157L871 157L871 155L872 154L874 153L881 153L879 150L876 149L874 149M1058 149L1056 154L1057 162L1055 165L1046 165L1044 169L1058 169L1057 173L1057 176L1058 176C1058.09 179.816 1058.12 182.634 1062 184L1062 168L1069 168L1069 167L1076 166L1076 165L1073 163L1062 163L1061 160L1061 149L1058 149M1233 154L1233 160L1234 160L1233 154M1248 154L1248 161L1249 161L1248 154M918 155L917 158L916 158L915 160L914 167L916 169L919 169L920 167L923 167L924 165L928 163L934 163L936 167L937 177L938 177L939 174L939 167L938 164L935 162L925 162L923 164L919 165L918 162L920 155L918 155z"/>
<path style="fill:#ffffff; stroke:none;" d="M1168 158L1167 161L1168 167L1167 172L1170 170L1168 158z"/>
<path style="fill:#000000; stroke:none;" d="M1235 160L1236 161L1235 160z"/>
<path style="fill:#ffffff; stroke:none;" d="M1182.33 167.667L1182.67 168.333L1182.33 167.667M1211 167L1212 168L1211 167z"/>
<path style="fill:#000000; stroke:none;" d="M1249 168L1250 169L1249 168z"/>
<path style="fill:#ffffff; stroke:none;" d="M1221 169L1223 173L1220 173L1220 174L1220 175L1224 176L1226 174L1226 170L1221 169M1192 172L1193 173L1192 172M1195 173L1190 179L1197 177L1195 173z"/>
<path style="fill:#000000; stroke:none;" d="M1223 173L1223 175L1225 173L1223 173z"/>
<path style="fill:#ffffff; stroke:none;" d="M1155 179L1152 185L1157 185L1161 179L1155 179M1210.67 179.333L1211.33 179.667L1210.67 179.333M1212 181L1213 182L1212 181M1256 183L1256 187L1255 187L1255 192L1256 192L1259 187L1256 183M1266 186L1269 188L1268 186L1266 186z"/>
<path style="fill:#000000; stroke:none;" d="M75 189L75 190L64 190L64 191L56 191L56 192L44 192L44 193L35 193L35 194L25 194L25 195L21 196L18 196L18 195L14 195L14 196L9 196L9 197L1 196L1 213L6 210L10 210L13 209L15 207L18 207L20 205L24 205L26 203L31 203L34 202L34 201L37 201L39 199L44 199L44 198L49 198L49 197L58 197L58 196L80 196L80 197L94 197L94 198L106 198L106 199L119 199L122 200L127 202L131 205L132 206L134 211L139 211L142 213L144 215L144 216L145 216L145 217L150 220L152 225L152 233L154 235L155 238L155 246L156 246L156 262L154 267L152 268L152 270L149 272L149 274L148 275L146 277L145 277L145 278L144 278L144 279L143 279L143 280L142 280L141 281L140 282L140 284L138 284L137 287L135 287L134 290L131 291L128 294L127 295L127 297L123 300L121 300L120 301L119 303L118 304L116 304L114 307L111 307L109 310L107 310L106 311L105 313L104 314L102 314L101 316L99 316L98 317L97 319L96 320L90 322L87 324L87 326L82 327L81 330L75 331L72 333L69 337L65 338L65 339L63 339L63 340L61 340L61 341L55 343L54 346L48 347L46 350L40 353L35 353L34 356L30 356L27 360L23 360L21 362L15 363L14 366L7 367L6 367L1 366L1 385L6 386L7 382L13 379L18 378L18 377L20 376L23 376L28 374L31 371L34 371L36 369L40 369L44 365L50 364L57 361L60 358L63 358L65 357L66 355L68 355L68 354L70 353L73 353L75 352L75 351L77 351L77 350L79 350L79 349L83 348L84 346L88 345L89 343L94 340L97 340L98 338L101 338L103 335L109 333L110 331L112 331L112 330L114 330L116 329L119 325L123 324L125 321L127 321L131 318L132 315L135 314L137 312L138 311L138 309L141 308L144 305L145 304L145 302L149 300L152 296L153 292L155 291L156 289L156 286L157 284L158 284L159 282L160 279L160 275L161 275L162 270L161 265L163 263L163 261L164 261L167 256L167 243L166 243L166 238L165 238L165 234L164 234L164 230L162 228L162 226L161 224L159 224L159 222L158 221L157 221L156 220L155 216L154 216L154 214L153 214L153 212L152 212L152 210L149 206L146 205L141 205L138 204L137 201L134 198L131 197L128 197L128 196L125 196L125 195L122 195L122 194L117 194L114 192L107 192L107 191L96 191L96 190L79 190L79 189L75 189z"/>
<path style="fill:#ffffff; stroke:none;" d="M1276 192L1276 200L1278 200L1278 198L1278 192L1276 192z"/>
<path style="fill:#000000; stroke:none;" d="M533 200L539 198L539 197L535 197L533 200M862 198L860 201L859 205L858 205L858 207L855 210L853 215L852 218L852 225L851 225L851 236L850 236L850 240L849 240L849 248L846 249L846 250L844 251L840 251L837 252L837 253L832 254L829 256L829 260L834 259L837 262L837 264L839 268L840 269L843 269L845 273L853 273L857 270L858 267L860 266L860 264L865 260L865 258L866 257L868 256L869 255L871 249L866 248L866 247L857 247L857 248L853 248L852 247L852 241L853 241L854 233L854 231L853 227L855 224L855 218L856 215L857 215L858 210L860 209L861 205L865 201L869 199L862 198M531 200L532 201L531 200M529 202L527 205L529 202M1248.33 205.667L1248.67 206.333L1248.33 205.667M526 206L527 207L526 206M523 210L522 215L523 215L523 210z"/>
<path style="fill:#ffffff; stroke:none;" d="M1270 213L1270 214L1275 214L1275 213L1270 213z"/>
<path style="fill:#000000; stroke:none;" d="M521 216L519 220L519 225L518 225L518 229L519 229L519 225L520 225L520 220L521 216M1236 219L1236 220L1243 220L1243 219L1236 219M1249 220L1250 223L1253 220L1249 220M509 227L508 230L508 238L510 240L518 241L519 237L525 233L519 235L518 230L517 230L517 235L515 237L510 237L509 233L509 227M73 235L70 239L70 244L69 244L69 253L70 253L71 260L71 263L68 268L64 270L62 263L56 263L51 265L49 268L49 270L48 271L46 272L45 273L41 281L41 286L42 289L45 293L48 294L58 294L63 291L65 289L65 288L66 288L66 287L69 285L69 283L74 281L75 284L78 282L78 276L79 276L79 271L78 271L78 265L81 264L88 259L87 268L89 272L92 273L97 273L100 272L102 270L104 270L104 269L107 265L102 265L102 266L94 268L94 263L96 261L95 259L96 257L99 255L99 253L100 252L103 251L102 247L98 247L95 248L95 249L92 249L89 251L89 252L87 252L84 255L80 256L79 253L79 247L80 247L80 239L79 239L79 235L73 235z"/>
<path style="fill:#ffffff; stroke:none;" d="M1283 239L1284 240L1283 239M1278 242L1277 247L1282 246L1280 242L1278 242z"/>
<path style="fill:#000000; stroke:none;" d="M518 243L519 244L518 243M477 247L476 248L477 251L480 253L480 255L481 256L483 258L484 258L484 259L485 259L489 267L487 270L484 271L482 273L481 277L480 277L480 279L479 279L479 281L478 281L477 283L476 288L477 288L479 285L479 281L482 280L483 277L485 276L486 275L486 273L487 272L490 269L492 269L493 270L495 272L495 273L496 273L496 274L497 274L497 275L498 275L498 276L506 279L506 278L503 277L502 275L501 274L499 274L498 273L497 272L496 271L496 269L494 268L494 264L496 261L498 259L499 259L499 258L500 258L500 257L501 257L501 256L502 256L502 255L503 255L503 254L504 254L506 251L500 253L499 256L496 257L494 261L490 261L488 257L485 256L484 253L482 252L481 249L480 248L477 247M507 250L507 251L510 252L509 250L507 250z"/>
<path style="fill:#ffffff; stroke:none;" d="M855 250L853 254L858 253L861 251L861 250L855 250M865 251L861 255L859 255L857 258L861 259L864 257L865 251M1269 251L1268 255L1269 260L1272 260L1272 259L1272 253L1276 253L1276 251L1274 251L1271 251L1269 251M846 252L842 253L836 256L839 261L843 260L843 259L845 259L845 258L847 258L849 257L849 252L846 252z"/>
<path style="fill:#000000; stroke:none;" d="M117 254L114 256L114 261L120 259L119 254L117 254M911 257L911 258L904 258L901 260L896 260L896 261L891 261L889 263L886 264L882 264L879 265L879 266L876 266L874 268L872 268L872 269L870 270L867 270L864 273L861 273L860 275L856 276L856 277L854 277L852 278L851 280L847 281L845 284L843 284L842 286L840 286L839 288L837 288L836 289L833 293L831 293L830 294L827 298L825 298L824 299L823 300L822 301L822 303L821 304L816 308L816 310L814 311L813 315L811 316L811 318L808 320L806 328L804 329L804 331L803 331L802 333L801 336L801 339L800 342L798 344L798 346L797 346L796 348L795 351L795 354L794 354L794 357L793 357L793 360L792 360L792 363L791 363L791 366L790 366L790 372L788 375L788 380L787 380L787 386L784 384L783 376L779 376L777 379L775 379L774 380L772 383L772 400L776 398L776 392L781 391L783 394L783 398L784 398L784 406L785 406L785 428L787 430L787 436L788 436L788 440L790 443L790 447L792 449L793 452L793 456L795 458L795 460L796 460L796 462L798 463L799 467L801 468L801 470L804 472L804 474L806 477L807 478L809 478L812 481L813 484L812 488L813 495L818 499L819 496L818 487L822 490L826 491L827 493L833 496L837 496L840 497L842 499L845 500L848 500L852 503L856 503L859 504L859 505L862 506L868 506L868 507L876 507L876 508L904 508L904 507L911 507L913 505L917 505L917 504L923 504L923 503L929 503L929 502L934 502L934 501L940 501L941 499L942 499L946 499L948 497L952 497L955 496L955 495L958 495L958 494L961 494L963 492L967 492L971 490L975 487L978 486L988 486L991 484L992 481L993 481L994 476L999 474L1004 470L1005 469L1005 467L1008 465L1010 458L1012 457L1013 454L1016 453L1015 450L1016 447L1021 440L1021 435L1025 432L1025 428L1026 428L1026 424L1029 422L1029 414L1030 411L1031 411L1032 408L1032 399L1033 399L1034 387L1033 385L1034 385L1034 379L1033 379L1033 362L1032 362L1032 353L1030 351L1030 346L1028 343L1028 339L1025 335L1025 331L1022 328L1021 323L1020 323L1020 321L1019 321L1019 319L1018 319L1018 317L1015 315L1015 312L1013 311L1013 309L1012 308L1008 305L1008 303L1007 302L1003 299L1003 297L1002 296L999 295L995 290L993 290L992 288L990 288L989 286L987 286L986 284L982 283L982 282L980 281L977 281L975 280L975 279L973 278L967 277L963 274L962 271L961 270L960 269L958 269L957 268L956 266L955 265L951 264L951 263L949 263L947 261L944 260L941 260L941 259L938 259L938 258L932 258L932 257L911 257M1216 259L1216 260L1222 260L1222 259L1216 259M569 260L569 264L573 265L574 260L569 260M1230 260L1230 261L1236 261L1236 260L1230 260z"/>
<path style="fill:#ffffff; stroke:none;" d="M846 269L849 266L846 269z"/>
<path style="fill:#000000; stroke:none;" d="M1250 267L1250 273L1249 273L1249 279L1252 279L1252 278L1252 273L1255 273L1255 272L1255 266L1250 267M579 267L582 269L581 267L579 267z"/>
<path style="fill:#ffffff; stroke:none;" d="M850 269L851 270L850 269M62 271L60 273L60 274L59 274L59 275L56 278L54 278L53 279L52 282L51 282L50 284L50 288L51 289L55 289L58 287L59 285L62 284L64 280L65 271L62 271z"/>
<path style="fill:#000000; stroke:none;" d="M773 272L770 273L768 275L765 276L761 276L758 279L751 283L748 283L747 284L743 289L740 289L739 290L738 292L737 293L735 293L734 294L732 296L732 297L731 297L731 298L729 300L727 300L725 303L723 303L722 304L720 307L719 308L717 308L717 310L714 311L713 314L710 317L708 317L707 318L706 321L703 322L702 326L699 328L699 330L698 331L697 332L691 334L690 330L688 329L688 327L685 325L685 323L682 321L681 317L676 313L676 311L675 310L673 309L672 308L672 306L671 305L670 304L667 303L665 301L664 298L661 297L658 293L656 293L654 290L648 288L647 286L645 285L642 285L640 286L640 287L638 287L638 288L636 288L636 289L634 289L632 292L631 293L629 293L628 300L631 301L632 304L634 306L635 306L635 307L636 307L638 309L638 311L641 313L641 315L643 316L644 320L648 323L648 325L650 326L652 332L654 333L654 335L656 336L656 338L658 339L658 341L661 342L662 347L665 349L665 351L667 352L667 355L669 356L669 358L671 359L672 363L677 368L677 372L674 374L672 381L670 384L667 386L663 394L663 398L660 402L660 410L658 413L658 418L657 418L657 422L656 422L656 429L655 429L655 455L656 455L656 472L657 476L658 476L658 485L659 485L659 490L660 493L662 495L663 505L665 505L667 508L667 510L668 511L671 513L674 514L676 514L677 513L683 513L683 512L689 512L689 511L698 511L698 510L703 510L705 508L707 508L707 507L709 507L711 505L711 504L712 504L712 503L714 502L715 498L716 498L716 496L718 494L718 489L721 486L722 483L722 479L723 479L723 475L724 475L724 470L725 470L725 462L726 462L726 454L727 454L727 421L726 421L726 414L725 414L725 408L724 408L724 404L723 404L723 400L722 400L722 392L721 392L721 376L722 376L722 372L723 372L723 368L724 365L725 365L725 362L726 362L726 359L727 359L727 356L729 353L731 352L732 348L734 346L735 346L735 345L736 345L737 344L738 343L740 341L742 337L742 335L743 334L745 332L746 332L746 331L747 331L748 329L750 329L751 328L752 326L753 325L755 325L756 324L758 322L758 321L759 321L759 320L761 318L763 318L764 317L767 313L769 313L771 310L773 310L774 308L778 307L780 304L782 304L783 303L789 298L788 295L791 293L791 292L788 290L788 286L787 283L786 283L785 278L783 275L780 273L776 272L773 272z"/>
<path style="fill:#ffffff; stroke:none;" d="M920 274L920 275L914 275L914 276L907 276L904 277L902 279L898 279L895 280L888 283L887 285L881 288L874 290L873 292L869 293L866 297L864 297L863 298L863 299L862 300L860 300L860 302L858 302L857 303L856 304L856 305L855 305L855 306L854 306L854 307L853 307L853 308L850 310L851 315L848 317L847 321L851 321L854 323L854 324L855 325L857 325L858 329L861 330L863 334L865 334L866 333L867 330L870 327L871 326L873 326L873 324L875 323L879 323L880 318L883 313L888 311L889 309L891 308L895 309L897 314L890 313L887 314L884 318L883 322L883 325L884 328L886 331L889 333L894 336L888 336L886 334L882 334L880 336L879 340L875 343L875 346L877 347L879 351L879 355L878 355L878 361L875 363L868 359L864 359L863 362L861 363L860 366L854 368L850 365L849 358L852 353L854 352L855 350L855 346L852 343L852 341L850 340L850 338L849 337L847 336L846 335L846 333L843 330L843 320L840 322L839 326L837 327L837 329L836 329L836 331L835 331L835 333L834 333L831 338L830 343L829 343L828 345L828 348L826 350L825 353L825 356L824 356L824 359L823 362L821 364L820 367L820 371L819 371L818 379L820 377L821 377L821 376L822 376L824 373L831 371L832 372L832 375L828 375L824 378L823 381L821 382L819 385L818 392L821 395L826 397L833 400L824 400L824 399L820 399L814 396L814 402L813 402L812 414L812 417L813 417L813 428L814 428L814 434L815 434L815 440L816 443L817 443L817 446L819 448L819 450L820 450L821 454L824 456L825 457L825 459L829 460L829 461L831 461L833 462L834 465L834 470L836 472L838 472L839 473L840 475L841 476L845 477L846 479L848 479L848 480L850 481L853 481L855 483L858 484L864 484L863 481L863 478L862 478L862 475L861 475L861 471L860 471L860 465L856 467L852 467L847 470L846 466L848 464L852 464L856 460L858 460L859 459L860 457L864 455L865 458L865 467L866 467L866 476L869 484L872 483L882 483L884 486L899 486L899 485L903 485L903 484L907 484L906 481L902 478L901 475L901 467L902 464L903 464L903 461L906 459L907 455L908 454L910 454L913 450L916 449L922 449L925 450L927 454L919 454L916 455L912 458L911 459L910 463L908 464L908 466L907 466L906 468L906 474L909 476L909 478L911 480L914 481L923 481L923 480L927 480L927 479L931 479L934 478L936 476L936 471L938 467L942 464L940 462L941 458L942 457L944 456L949 456L949 457L953 457L956 460L957 461L959 463L960 458L963 459L970 459L974 456L977 453L977 449L981 446L982 441L983 441L983 439L985 434L988 431L989 425L993 420L993 415L994 415L994 410L995 410L995 405L997 403L997 397L998 397L998 391L999 391L999 366L998 366L998 361L995 357L995 353L994 353L994 349L992 347L992 343L991 340L988 334L984 331L984 335L980 340L980 325L977 327L973 329L968 329L966 327L966 318L968 314L975 314L974 310L971 308L971 306L968 304L968 302L967 301L964 300L960 295L954 293L952 290L948 289L946 286L942 286L939 285L938 284L938 281L935 280L934 278L932 278L932 277L930 277L928 275L925 274L920 274M152 277L150 279L149 280L149 282L146 283L142 287L142 289L141 290L140 291L139 292L137 292L136 293L133 296L132 297L132 299L127 301L127 303L124 305L122 305L121 306L120 308L119 309L117 309L116 311L114 311L113 312L109 317L105 318L103 321L101 321L99 324L95 325L94 327L92 327L90 330L84 332L82 335L79 335L78 337L76 337L75 339L73 339L72 341L68 342L66 345L61 346L60 348L58 348L58 349L56 349L54 350L53 352L48 355L45 355L44 357L40 357L37 359L36 362L30 365L33 363L36 364L41 362L43 360L45 360L45 359L47 359L47 358L49 358L49 357L51 357L51 356L53 355L56 355L61 353L64 351L64 350L66 350L68 348L71 348L76 346L79 344L79 343L81 343L84 340L87 340L88 338L90 338L92 335L96 335L99 333L100 331L102 331L102 330L104 330L106 329L107 327L109 327L111 324L114 324L115 322L117 322L118 320L120 320L121 318L123 318L125 315L127 315L128 314L130 312L130 311L131 311L131 310L132 310L133 309L133 307L136 306L138 304L138 303L139 303L139 302L140 302L140 301L141 301L141 300L144 298L144 296L145 295L147 294L148 293L149 289L150 289L151 287L151 284L154 277L152 277z"/>
<path style="fill:#000000; stroke:none;" d="M545 279L545 280L534 280L534 281L528 281L528 282L524 282L524 283L520 283L520 284L515 284L514 286L513 286L509 286L509 287L505 287L502 288L502 289L499 289L498 291L495 291L493 293L490 293L488 294L488 295L486 295L486 296L484 296L484 297L480 298L478 301L474 302L472 305L470 305L469 307L467 307L466 308L465 310L464 311L462 311L461 312L460 313L459 316L456 317L455 318L454 319L454 321L453 322L451 323L450 324L450 326L447 328L447 330L445 331L445 333L443 334L443 336L441 337L441 339L439 340L438 345L436 346L436 348L435 348L434 350L434 354L433 354L433 359L431 361L431 365L430 365L430 369L429 369L429 373L428 373L428 377L427 377L426 381L426 384L427 384L427 394L425 397L425 409L426 409L426 413L424 415L424 426L425 426L425 439L426 439L426 446L427 446L427 455L428 455L428 459L430 460L430 461L430 465L431 465L431 473L433 475L433 477L434 477L434 479L436 480L436 482L437 482L437 484L438 484L438 486L439 486L440 488L442 496L444 497L444 499L448 502L448 504L450 507L451 508L456 511L461 512L462 514L464 514L464 515L466 515L468 517L471 518L475 518L475 519L480 519L480 520L486 520L486 521L513 521L513 520L523 520L523 519L532 519L532 518L541 518L541 517L548 517L548 516L554 516L554 515L559 515L562 514L564 512L569 512L572 510L576 510L578 508L580 508L580 507L582 506L588 505L595 499L595 493L590 490L589 489L588 486L583 485L581 485L575 489L571 489L568 490L568 491L565 491L565 492L562 492L560 494L557 495L553 495L550 496L550 497L547 498L540 498L540 499L532 499L532 500L504 500L504 499L500 499L500 498L496 498L496 497L492 497L489 495L488 493L486 493L483 491L482 488L478 485L477 481L476 481L476 479L475 479L475 477L474 477L471 472L470 469L470 466L469 466L469 463L468 460L466 458L466 454L464 451L464 447L463 447L463 441L462 441L462 434L461 434L461 425L460 425L460 402L461 402L461 387L462 387L464 378L467 379L479 379L479 380L492 380L492 379L501 379L501 378L509 378L509 377L513 377L513 376L517 376L520 374L524 374L527 372L531 372L533 370L536 369L539 369L539 368L542 368L545 367L547 365L550 365L552 364L552 363L554 363L554 362L556 362L556 361L561 360L562 358L567 357L569 354L572 354L573 353L575 351L575 350L576 350L576 349L579 346L581 346L582 345L584 343L584 342L585 342L585 341L586 341L586 340L587 340L587 339L589 338L589 336L591 335L592 331L594 330L595 328L595 324L597 322L598 319L598 308L597 308L597 304L596 301L594 298L592 297L592 295L587 289L586 288L582 287L581 285L579 285L579 284L577 284L575 282L572 281L568 281L568 280L561 280L561 279L545 279M1234 283L1233 286L1229 286L1229 293L1242 293L1243 297L1249 297L1250 293L1249 286C1244.43 286 1238.74 287.224 1236 283L1234 283z"/>
<path style="fill:#ffffff; stroke:none;" d="M1273 293L1276 296L1273 293M518 299L518 300L511 300L509 303L504 304L504 305L502 305L500 306L499 308L497 308L496 310L493 311L492 314L489 318L486 319L483 322L481 326L481 333L480 333L480 339L478 341L478 347L479 347L479 353L482 354L484 357L487 358L491 358L491 359L501 359L501 360L506 360L506 359L512 359L512 360L516 360L519 358L526 358L526 357L532 357L532 356L537 356L539 354L543 354L543 353L547 353L550 352L552 350L554 350L554 349L556 349L559 346L559 344L562 342L562 340L564 339L564 334L566 332L566 320L564 315L562 314L562 312L559 308L556 306L554 306L553 304L548 302L545 301L542 301L542 300L539 300L539 299L518 299M1268 307L1268 313L1269 313L1268 307z"/>
<path style="fill:#000000; stroke:none;" d="M70 310L66 311L63 314L59 315L59 316L57 317L51 318L48 322L44 322L43 324L38 326L34 325L34 327L28 331L20 333L19 335L17 335L17 336L15 337L11 337L6 339L1 336L1 349L7 348L10 345L13 346L15 343L17 343L17 342L19 341L24 341L27 338L32 337L34 334L38 333L38 332L40 331L43 330L46 330L46 329L52 329L54 326L57 326L58 324L61 324L62 323L63 321L64 320L66 320L67 318L69 318L70 316L74 315L73 310L70 310M909 315L908 316L908 320L905 321L902 325L903 330L905 331L906 333L906 337L912 340L912 344L910 348L907 350L907 352L905 353L904 358L902 359L901 362L901 364L902 367L903 368L910 369L913 366L914 362L916 360L917 360L917 359L918 359L920 356L924 356L927 360L931 361L931 362L936 363L938 361L939 357L939 354L937 349L935 348L933 345L933 343L936 341L936 339L937 338L939 337L940 336L940 334L942 333L942 323L941 320L939 318L933 319L931 324L928 325L926 329L922 331L920 329L920 327L918 326L918 324L916 323L916 318L913 315L909 315z"/>
<path style="fill:#ffffff; stroke:none;" d="M970 321L970 323L971 324L973 324L974 320L970 321z"/>
<path style="fill:#000000; stroke:none;" d="M1223 324L1223 326L1229 326L1229 324L1223 324M1211 346L1214 346L1213 344L1211 346M1190 346L1190 347L1196 347L1196 346L1190 346z"/>
<path style="fill:#ffffff; stroke:none;" d="M1236 346L1236 352L1237 352L1236 346z"/>
<path style="fill:#000000; stroke:none;" d="M1199 352L1199 353L1202 353L1202 366L1203 366L1203 352L1199 352z"/>
<path style="fill:#ffffff; stroke:none;" d="M27.6667 365.333L28.3333 365.667L27.6667 365.333z"/>
<path style="fill:#000000; stroke:none;" d="M759 367L758 373L757 373L757 379L756 379L756 383L755 386L753 388L753 390L752 390L751 392L752 401L755 402L758 402L759 402L766 397L762 397L760 399L755 399L754 398L754 393L757 389L757 386L759 384L759 379L760 379L760 375L761 375L759 367M1190 370L1190 373L1191 373L1196 373L1196 370L1195 370L1190 370z"/>
<path style="fill:#ffffff; stroke:none;" d="M279 374L277 377L279 374z"/>
<path style="fill:#000000; stroke:none;" d="M934 377L934 378L939 379L941 382L941 390L936 392L933 390L937 381L932 381L928 386L928 395L924 398L924 400L923 401L921 402L920 403L920 405L919 406L917 407L916 408L916 410L913 412L913 414L912 415L908 419L906 419L905 420L903 422L903 423L902 423L902 424L898 427L891 427L887 424L886 421L884 419L883 419L883 418L882 418L880 415L875 414L871 412L867 408L862 408L857 410L854 413L853 418L849 423L849 439L851 443L852 444L854 444L854 445L856 445L858 446L860 449L862 449L863 451L865 451L868 454L876 454L876 455L882 455L882 456L893 456L896 454L900 454L903 451L911 447L917 446L919 444L923 444L924 441L929 437L929 435L930 434L932 433L933 432L934 428L936 427L937 423L939 422L939 420L940 420L941 418L941 414L942 414L942 408L943 408L943 399L941 395L946 390L946 383L944 380L940 376L936 376L934 377M856 377L854 381L854 386L855 386L855 392L857 395L857 399L862 404L861 401L861 396L860 396L860 390L859 390L859 386L858 386L859 377L856 377z"/>
<path style="fill:#ffffff; stroke:none;" d="M276 378L275 380L276 378z"/>
<path style="fill:#000000; stroke:none;" d="M901 379L896 381L896 385L901 385L901 384L912 384L911 381L908 379L901 379M1191 379L1191 380L1196 382C1195.35 378.946 1193.99 379.064 1191 379z"/>
<path style="fill:#ffffff; stroke:none;" d="M779 380L777 385L777 391L781 388L779 380z"/>
<path style="fill:#000000; stroke:none;" d="M8 383L9 384L8 383M1195 383L1191 385L1191 387L1196 388L1195 383M892 393L892 394L894 395L904 395L904 394L916 392L913 391L896 391L892 393z"/>
<path style="fill:#ffffff; stroke:none;" d="M1206 393L1208 396L1209 396L1211 393L1208 392L1206 393M1203 396L1203 402L1206 401L1205 396L1203 396z"/>
<path style="fill:#000000; stroke:none;" d="M1154.67 398.333L1155.33 398.667L1154.67 398.333z"/>
<path style="fill:#ffffff; stroke:none;" d="M1188.67 399.333L1189.33 399.667L1188.67 399.333M686 410L684 414L684 418L683 418L683 423L681 426L681 457L682 457L682 464L683 464L683 469L684 469L684 474L685 474L685 478L686 478L688 484L690 480L690 475L692 472L692 455L693 455L693 432L692 432L692 426L690 423L690 416L688 414L688 412L686 410M1176 415L1183 415L1183 412L1182 412L1178 412L1176 415z"/>
<path style="fill:#000000; stroke:none;" d="M1150 431L1150 432L1156 432L1156 431L1150 431M1069 436L1066 437L1066 438L1063 438L1058 440L1057 443L1055 444L1054 446L1054 450L1053 450L1053 456L1052 456L1052 467L1053 467L1053 471L1057 474L1059 477L1067 478L1072 479L1073 479L1072 474L1077 476L1077 472L1083 472L1082 469L1087 470L1088 466L1093 464L1089 462L1089 458L1088 454L1088 453L1088 452L1090 450L1087 449L1085 447L1085 446L1084 446L1084 445L1083 445L1082 444L1080 442L1079 437L1076 438L1074 436L1069 436z"/>
<path style="fill:#ffffff; stroke:none;" d="M1149 446L1150 447L1149 446M1136.67 451.333L1137.33 451.667L1136.67 451.333z"/>
<path style="fill:#000000; stroke:none;" d="M761 452L756 454L751 457L750 459L748 459L746 462L744 462L743 464L741 464L740 465L739 468L736 469L735 473L734 473L733 475L733 485L735 488L739 492L742 493L749 493L749 494L758 494L758 493L766 490L761 490L758 490L758 491L755 491L755 490L748 490L748 489L743 489L740 487L739 486L738 484L738 476L741 473L741 471L742 470L746 466L748 466L749 464L751 464L752 462L756 461L756 460L758 459L765 458L771 460L769 456L769 454L767 452L761 452z"/>
<path style="fill:#ffffff; stroke:none;" d="M1128.67 452.333L1129.33 452.667L1128.67 452.333z"/>
<path style="fill:#000000; stroke:none;" d="M1034 455L1034 456L1024 456L1019 458L1018 462L1020 466L1025 467L1027 462L1045 462L1044 457L1041 456L1038 456L1034 455z"/>
<path style="fill:#ffffff; stroke:none;" d="M1126 455L1128 457L1126 455z"/>
<path style="fill:#000000; stroke:none;" d="M783 459L779 461L778 463L774 465L772 470L772 474L771 474L771 480L773 482L773 484L774 484L775 487L778 488L778 489L780 490L783 491L789 491L792 488L788 488L788 487L782 487L779 485L778 484L777 483L775 479L776 476L776 472L777 469L783 464L789 463L794 467L794 462L791 460L786 459L783 459z"/>
<path style="fill:#ffffff; stroke:none;" d="M1104.67 460.333L1105.33 460.667L1104.67 460.333M944 461L946 463L947 466L946 472L952 472L952 467L951 467L951 463L949 461L944 461z"/>
<path style="fill:#000000; stroke:none;" d="M1035 467L1033 469L1028 469L1028 470L1023 470L1023 475L1026 476L1029 476L1030 476L1030 475L1037 475L1040 473L1046 472L1045 468L1039 468L1035 467M1050.33 470.667L1050.67 471.333L1050.33 470.667z"/>
<path style="fill:#ffffff; stroke:none;" d="M1099 471L1100 472L1099 471z"/>
<path style="fill:#000000; stroke:none;" d="M1075.67 478.333L1076.33 478.667L1075.67 478.333M1098 479L1099 480L1098 479M8 486L9 487L8 486M6.33333 490.667L6.66667 491.333L6.33333 490.667M107 490L107 493L110 492L110 491L107 490M1083 492L1084 493L1083 492z"/>
<path style="fill:#ffffff; stroke:none;" d="M1106 495L1107 496L1106 495z"/>
<path style="fill:#000000; stroke:none;" d="M124 500L124 502L126 503L131 502L131 500L130 499L124 500z"/>
<path style="fill:#ffffff; stroke:none;" d="M1104 499L1104 500L1109 500L1109 499L1104 499z"/>
<path style="fill:#000000; stroke:none;" d="M134 504L136 507L134 504M68 509L67 512L70 512L68 509z"/>
<path style="fill:#ffffff; stroke:none;" d="M1089 519L1090 520L1089 519z"/>
<path style="fill:#000000; stroke:none;" d="M80 525L84 528L80 525M860 531L857 533L856 536L854 537L852 542L847 540L847 547L848 547L848 557L849 557L849 567L848 567L849 578L853 577L853 568L854 568L855 560L858 561L862 565L862 567L865 569L865 571L871 573L869 569L869 566L867 565L867 563L866 562L864 560L863 560L863 559L862 559L862 558L861 558L861 557L860 557L856 554L860 552L860 550L863 549L866 543L866 534L862 531L860 531M917 533L917 538L920 539L919 542L918 558L918 560L919 564L921 566L937 567L939 565L939 561L936 559L925 560L925 549L926 549L926 543L927 543L927 537L924 531L917 533M1010 533L1004 534L1004 535L995 535L995 536L991 536L986 538L984 540L984 541L988 545L992 545L995 542L999 543L1001 541L1010 541L1010 542L1019 542L1020 541L1020 537L1017 535L1012 533L1010 533M754 534L752 536L750 536L750 537L748 537L744 541L744 543L741 545L740 549L739 549L736 555L736 559L735 559L735 563L738 568L742 570L753 570L753 569L758 569L761 568L766 565L762 564L754 565L754 566L742 565L741 564L740 562L741 556L743 551L745 548L747 547L748 544L752 541L755 541L756 539L762 541L762 536L758 534L754 534M820 534L816 538L814 542L814 554L815 554L815 559L816 559L816 568L817 568L817 575L818 575L818 579L820 581L823 580L823 575L822 575L822 562L824 557L827 556L830 552L832 547L832 540L829 536L826 534L820 534M896 534L891 537L890 539L888 539L886 542L884 542L882 544L882 552L885 554L886 548L889 545L894 543L894 549L895 549L895 558L896 558L896 565L895 566L889 567L889 571L890 572L892 572L895 572L897 573L899 573L903 572L903 571L907 571L912 569L914 567L914 566L911 563L907 563L902 565L902 560L901 560L901 556L900 556L899 546L899 543L900 543L901 536L899 534L896 534z"/>
<path style="fill:#ffffff; stroke:none;" d="M860 536L858 538L857 542L856 542L855 544L854 548L857 547L858 546L859 545L859 543L861 542L862 536L860 536z"/>
<path style="fill:#000000; stroke:none;" d="M5 539L1 541L1 558L5 558L5 565L10 565L12 559L15 558L14 552L5 552C5 548.887 4.24668 544.55 8 544L8 539L5 539M792 539L788 542L785 541L784 541L781 542L780 545L780 551L779 551L779 555L778 555L778 568L779 568L779 572L781 575L783 576L784 577L786 583L788 583L789 582L789 578L800 578L805 574L790 574L787 572L787 565L786 565L786 560L785 560L785 552L787 549L789 548L790 545L793 544L796 545L797 544L796 540L792 539z"/>
<path style="fill:#ffffff; stroke:none;" d="M822 539L820 541L821 547L819 549L820 555L824 552L826 548L827 541L825 539L822 539M1010 540L1010 541L1011 541L1012 541L1013 541L1013 540L1012 540L1010 540z"/>
<path style="fill:#000000; stroke:none;" d="M1034 545L1035 546L1034 545z"/>
<path style="fill:#ffffff; stroke:none;" d="M1050 548L1050 553L1056 553L1056 552L1050 548z"/>
<path style="fill:#000000; stroke:none;" d="M1030 549L1024 551L1024 552L1032 552L1030 549M1004 553L1004 555L999 555L999 556L987 556L986 557L986 561L992 565L995 564L1000 564L1000 565L1004 565L1006 562L1007 562L1008 564L1013 562L1013 563L1010 564L1013 565L1024 565L1024 564L1021 563L1024 561L1022 555L1018 553L1019 555L1018 555L1015 554L1004 553z"/>
<path style="fill:#ffffff; stroke:none;" d="M1044 559L1045 560L1044 559z"/>
<path style="fill:#000000; stroke:none;" d="M1 568L2 598L2 599L1 601L1 750L406 750L406 747L405 747L400 747L400 743L403 742L403 741L399 738L389 738L389 731L386 731L386 730L386 724L382 724L382 731L379 727L373 727L373 730L372 730L366 730L366 731L379 731L379 733L381 733L384 733L386 733L386 740L385 740L382 738L380 744L377 743L374 740L373 739L373 737L365 737L360 733L360 737L359 738L353 738L352 737L352 731L346 731L342 738L340 731L324 731L322 727L313 727L313 731L306 731L306 740L303 739L304 731L300 731L300 724L293 724L293 723L287 723L287 724L280 724L280 733L273 733L273 732L267 732L267 731L273 731L273 720L267 720L266 724L260 724L261 717L260 717L259 719L259 724L254 724L254 718L247 718L247 716L254 715L254 714L252 713L247 713L247 711L245 711L234 711L233 714L228 711L233 711L233 704L227 704L227 712L218 711L218 705L217 704L213 704L214 698L214 697L213 694L211 694L211 691L207 691L207 692L196 691L196 698L193 702L187 702L187 700L185 700L182 700L180 700L183 698L183 685L180 684L174 684L174 681L170 681L169 684L165 685L160 685L164 691L154 691L154 687L147 687L147 684L146 684L140 684L141 680L134 679L134 671L126 674L125 671L121 671L121 666L120 665L118 665L107 666L107 662L114 662L114 660L112 660L109 660L107 660L108 657L101 658L101 660L99 660L96 660L94 660L94 658L92 658L86 658L85 653L83 653L82 658L74 655L77 651L74 648L72 642L71 641L69 641L68 640L67 638L68 635L61 634L61 632L67 632L67 630L65 630L62 630L61 630L61 631L54 631L54 634L53 634L48 634L47 632L43 632L43 631L45 630L45 625L51 625L52 624L52 618L53 618L53 611L49 611L48 612L48 618L47 618L47 611L41 611L41 598L37 598L37 592L34 592L34 593L34 598L28 598L28 592L27 592L27 585L18 585L18 579L14 578L14 572L13 572L13 578L10 578L10 579L10 585L8 585L8 583L8 573L12 569L8 569L8 568L1 568M40 584L41 587L44 586L44 585L40 584z"/>
<path style="fill:#ffffff; stroke:none;" d="M1017 585L1017 586L1023 586L1023 585L1017 585M5 587L7 590L7 587L5 587z"/>
<path style="fill:#000000; stroke:none;" d="M41 590L41 592L43 590L41 590M997 592L997 594L999 594L999 592L997 592M61 599L61 604L54 604L54 605L61 605L61 611L62 611L61 599z"/>
<path style="fill:#ffffff; stroke:none;" d="M13 601L14 602L13 601M30 612L28 615L34 616L34 618L36 618L39 618L41 618L41 612L30 612z"/>
<path style="fill:#000000; stroke:none;" d="M81 612L82 613L81 612M944 617L945 618L944 617z"/>
<path style="fill:#ffffff; stroke:none;" d="M898 623L899 624L898 623M20 625L21 626L20 625M31 628L31 629L35 632L41 632L41 627L34 627L31 628z"/>
<path style="fill:#000000; stroke:none;" d="M803 629L804 634L809 638L813 638L815 636L815 632L813 629L810 627L803 629z"/>
<path style="fill:#ffffff; stroke:none;" d="M934 627L934 629L936 629L936 627L934 627M54 637L54 638L61 638L61 637L54 637M931 637L932 639L933 639L934 637L931 637z"/>
<path style="fill:#000000; stroke:none;" d="M94 638L94 639L101 639L101 638L94 638z"/>
<path style="fill:#ffffff; stroke:none;" d="M56 640L56 641L57 641L58 641L59 641L59 640L58 640L56 640z"/>
<path style="fill:#000000; stroke:none;" d="M81 642L81 645L82 645L87 645L87 642L86 642L81 642M134 643L135 644L134 643z"/>
<path style="fill:#ffffff; stroke:none;" d="M56 644L57 647L57 658L67 658L67 659L74 659L74 658L67 658L67 652L58 651L59 644L56 644z"/>
<path style="fill:#000000; stroke:none;" d="M88 650L88 651L94 651L94 650L88 650M121.333 651.667L121.667 652.333L121.333 651.667z"/>
<path style="fill:#ffffff; stroke:none;" d="M774 651L776 654L774 651M879 651L879 655L880 655L881 651L879 651M53 652L53 658L54 658L53 652z"/>
<path style="fill:#000000; stroke:none;" d="M147 652L147 658L148 658L147 652z"/>
<path style="fill:#ffffff; stroke:none;" d="M841 653L841 658L842 658L841 653z"/>
<path style="fill:#000000; stroke:none;" d="M121 656L121 659L121 663L126 658L121 656z"/>
<path style="fill:#ffffff; stroke:none;" d="M775 656L774 658L776 658L775 656z"/>
<path style="fill:#000000; stroke:none;" d="M861.667 657.333L862.333 657.667L861.667 657.333z"/>
<path style="fill:#ffffff; stroke:none;" d="M879.333 658.667L879.667 659.333L879.333 658.667M838 660L838 664L837 664L836 661L835 661L834 664L837 665L837 673L838 673L839 670L841 669L842 668L842 663L839 664L838 660z"/>
<path style="fill:#000000; stroke:none;" d="M172 661L170 664C172.251 663.527 173.118 663.14 172 661M134 662L134 665L135 665L140 665L140 662L139 662L134 662z"/>
<path style="fill:#ffffff; stroke:none;" d="M851 662L851 664L853 662L851 662z"/>
<path style="fill:#000000; stroke:none;" d="M857.333 663.667L857.667 664.333L857.333 663.667z"/>
<path style="fill:#ffffff; stroke:none;" d="M48 665L49 666L48 665M853 667L853 668L857 669L857 668L853 667M52 670L53 671L52 670M105 671L105 684L106 684L106 691L107 691L107 675L114 675L114 670L108 670L105 671z"/>
<path style="fill:#000000; stroke:none;" d="M167 671L167 680L168 680L168 678L167 671z"/>
<path style="fill:#ffffff; stroke:none;" d="M81 672L81 677L82 677L81 672M847 672L849 674L847 672M863 672L864 673L863 672M764 673L765 674L764 673M835 673L836 674L835 673M750 674L751 675L750 674M120 678L123 675L120 678M828 675L827 677L829 677L828 675M844 675L848 678L844 675z"/>
<path style="fill:#000000; stroke:none;" d="M819 676L819 677L820 677L821 677L822 677L822 676L821 676L819 676z"/>
<path style="fill:#ffffff; stroke:none;" d="M863 676L864 677L863 676z"/>
<path style="fill:#000000; stroke:none;" d="M147 677L147 678L160 678L160 677L147 677z"/>
<path style="fill:#ffffff; stroke:none;" d="M830 677L831 678L830 677M850 677L851 678L850 677M854 677L855 678L854 677M94 678L94 680L100 680L100 678L94 678M864 678L864 684L865 684L864 678M810 679L810 691L804 691L805 694L811 694L811 692L813 692L828 691L824 691L824 690L818 690L818 686L817 685L813 685L814 681L810 679M858 684L862 681L858 684M884 681L885 682L884 681z"/>
<path style="fill:#000000; stroke:none;" d="M245.667 683.333L246.333 683.667L245.667 683.333z"/>
<path style="fill:#ffffff; stroke:none;" d="M833 683L836 685L835 683L833 683z"/>
<path style="fill:#000000; stroke:none;" d="M767 685L766 686L766 688L767 689L769 689L770 688L770 686L769 685L767 685z"/>
<path style="fill:#ffffff; stroke:none;" d="M853 685L853 691L854 691L853 685z"/>
<path style="fill:#000000; stroke:none;" d="M207 688L208 689L207 688M783 688L781 691L785 691L783 688z"/>
<path style="fill:#ffffff; stroke:none;" d="M133 690L134 691L133 690z"/>
<path style="fill:#000000; stroke:none;" d="M220 690L218 692L218 698L220 698L220 696L220 690z"/>
<path style="fill:#ffffff; stroke:none;" d="M126 691L127 692L126 691z"/>
<path style="fill:#000000; stroke:none;" d="M227 691L227 698L233 698L233 691L227 691z"/>
<path style="fill:#ffffff; stroke:none;" d="M174 692L174 697L175 697L174 692M179 692L179 697L180 697L179 692z"/>
<path style="fill:#000000; stroke:none;" d="M247 692L247 697L240 697L240 698L247 698L248 697L247 692z"/>
<path style="fill:#ffffff; stroke:none;" d="M207 695L201 697L201 698C204.511 698 208.146 698.987 209 695L207 695M785 698L785 704L787 704L787 698L785 698z"/>
<path style="fill:#000000; stroke:none;" d="M253 705L253 711L256 711L256 710L256 705L253 705M292 709L291 711L293 711L292 709z"/>
<path style="fill:#ffffff; stroke:none;" d="M200 710L200 711L204 711L205 714L213 714L213 711L212 711L207 711L207 710L200 710M187 711L187 712L193 712L193 711L187 711M771 711L771 712L778 712L778 711L771 711M239 718L239 724L240 724L239 718z"/>
<path style="fill:#000000; stroke:none;" d="M287 718L287 719L293 719L293 718L287 718z"/>
<path style="fill:#ffffff; stroke:none;" d="M757 718L757 724L758 724L757 718z"/>
<path style="fill:#000000; stroke:none;" d="M360 724L360 731L362 731L362 729L362 726L362 724L360 724z"/>
<path style="fill:#ffffff; stroke:none;" d="M286 726L286 729L287 729L293 729L293 726L292 726L286 726z"/>
<path style="fill:#000000; stroke:none;" d="M570 731L567 735L564 734L562 736L562 739L559 741L558 738L554 739L554 740L553 741C551.063 741.929 550.029 742.665 552 744L552 745L546 745L547 742L546 741L544 741L542 743L542 746L540 748L532 747L532 750L533 750L592 750L592 744L593 744L594 750L597 750L597 749L599 741L592 741L592 740L585 740L585 738L587 738L592 738L592 737L579 737L578 734L574 731L570 731z"/>
<path style="fill:#ffffff; stroke:none;" d="M705 731L705 732L711 732L711 731L705 731M652 739L652 742L653 742L658 742L658 739L657 739L652 739z"/>
<path style="fill:#000000; stroke:none;" d="M605 740L605 744L601 744L601 750L611 750L611 744L612 744L612 750L614 750L614 744L612 744L612 740L605 740M426 742L426 744L420 744L419 748L413 748L413 750L415 750L459 750L459 748L453 746L450 748L449 748L446 744L444 744L443 745L442 747L439 748L439 742L426 742M472 745L472 747L473 748L477 745L474 744L472 745z"/>
<path style="fill:#ffffff; stroke:none;" d="M584.333 744.667L584.667 745.333L584.333 744.667z"/>
<path style="fill:#000000; stroke:none;" d="M478.333 745.667L478.667 746.333L478.333 745.667M492 746L492 749L493 749L499 748L499 747L492 746M506 748L507 749L506 748M518.333 748.667L518.667 749.333L518.333 748.667z"/>
</svg>
