<svg version="1.1" xmlns="http://www.w3.org/2000/svg" viewBox="0 0 233.98629877953454 379.051769327325" width="233.98629877953454" height="379.051769327325">
  <!-- svg-source:excalidraw -->
  
  <defs>
    <style class="style-fonts">
      
    </style>
    
  </defs>
  <g transform="translate(79.583676226227 20.20560584651321) rotate(0 19.019538168501867 64.48087330296948)" stroke="none"><path fill="grey" d="M 1.04,4.29 Q 1.04,4.29 -8.88,6.46 -18.80,8.63 -24.02,9.99 -29.24,11.35 -32.98,12.68 -36.72,14.01 -39.96,15.24 -43.20,16.48 -45.68,17.80 -48.17,19.13 -50.14,20.50 -52.11,21.88 -54.84,24.88 -57.56,27.88 -59.58,32.31 -61.60,36.73 -62.26,39.35 -62.92,41.97 -63.50,44.80 -64.09,47.63 -64.28,50.22 -64.48,52.81 -64.56,55.50 -64.63,58.19 -64.74,61.46 -64.85,64.72 -64.76,68.36 -64.67,72.00 -64.07,74.95 -63.48,77.89 -62.68,80.70 -61.89,83.51 -60.80,85.78 -59.72,88.05 -58.44,90.67 -57.17,93.30 -54.67,96.86 -52.18,100.43 -49.03,104.19 -45.88,107.96 -41.73,111.93 -37.57,115.91 -34.49,118.71 -31.40,121.51 -24.54,124.94 -17.68,128.37 -12.61,130.42 -7.55,132.47 -2.63,133.59 2.28,134.70 6.70,135.19 11.13,135.68 15.58,135.63 20.03,135.58 24.65,134.54 29.28,133.49 35.04,131.99 40.81,130.48 47.62,127.50 54.44,124.53 59.60,120.96 64.75,117.39 69.79,112.25 74.82,107.11 79.86,100.45 84.91,93.79 88.62,87.56 92.33,81.33 95.20,74.78 98.07,68.22 99.51,64.57 100.96,60.92 102.00,57.55 103.04,54.18 103.31,51.36 103.59,48.54 103.09,44.50 102.59,40.46 101.58,36.90 100.57,33.34 99.27,31.32 97.97,29.30 96.54,27.07 95.11,24.85 93.70,22.99 92.30,21.13 90.41,19.62 88.52,18.12 86.27,16.31 84.03,14.50 81.48,12.35 78.94,10.20 76.47,8.66 74.00,7.13 71.84,6.01 69.68,4.88 64.63,3.13 59.58,1.38 55.87,0.22 52.17,-0.94 48.26,-2.34 44.36,-3.75 41.26,-4.47 38.15,-5.19 35.66,-5.37 33.17,-5.56 30.31,-5.63 27.45,-5.71 23.48,-5.55 19.52,-5.38 17.08,-5.10 14.65,-4.82 11.02,-4.12 7.39,-3.42 4.52,-2.65 1.66,-1.89 0.41,0.04 -0.84,1.99 -2.50,3.30 -4.16,4.62 -5.06,5.07 -5.96,5.52 -6.95,5.66 -7.94,5.80 -8.93,5.61 -9.91,5.43 -10.79,4.94 -11.66,4.45 -12.34,3.70 -13.01,2.96 -13.41,2.04 -13.81,1.12 -13.90,0.12 -13.98,-0.87 -13.74,-1.84 -13.50,-2.82 -12.97,-3.66 -12.43,-4.51 -11.65,-5.14 -10.87,-5.77 -9.93,-6.12 -8.99,-6.47 -7.99,-6.50 -6.99,-6.54 -6.03,-6.24 -5.07,-5.95 -4.25,-5.37 -3.43,-4.79 -2.85,-3.98 -2.26,-3.17 -1.96,-2.21 -1.66,-1.25 -1.68,-0.25 -1.71,0.74 -2.05,1.69 -2.39,2.63 -3.02,3.41 -3.64,4.20 -4.49,4.74 -5.33,5.29 -6.30,5.53 -7.27,5.78 -8.27,5.70 -9.27,5.62 -10.20,5.23 -11.12,4.84 -11.87,4.17 -12.62,3.50 -13.11,2.63 -13.61,1.76 -13.80,0.78 -14.00,-0.20 -13.86,-1.19 -13.73,-2.19 -13.29,-3.09 -12.85,-3.99 -12.14,-4.70 -11.44,-5.41 -11.44,-5.41 -11.44,-5.41 -9.97,-6.52 -8.50,-7.63 -6.85,-9.06 -5.20,-10.48 -3.24,-11.60 -1.27,-12.72 0.86,-12.90 3.01,-13.07 5.97,-13.45 8.92,-13.83 11.33,-14.16 13.73,-14.48 18.67,-14.57 23.62,-14.65 25.73,-14.46 27.85,-14.27 31.02,-14.06 34.20,-13.85 37.12,-13.36 40.03,-12.88 43.39,-12.01 46.74,-11.15 50.49,-10.09 54.24,-9.03 58.50,-8.16 62.77,-7.28 65.85,-6.20 68.94,-5.11 71.55,-4.06 74.16,-3.01 76.42,-1.62 78.68,-0.22 81.58,1.65 84.49,3.54 87.07,5.66 89.65,7.79 91.92,9.77 94.20,11.75 96.67,14.14 99.14,16.52 100.47,18.80 101.79,21.07 103.02,23.56 104.25,26.05 105.44,28.84 106.64,31.63 107.73,35.63 108.82,39.63 109.49,44.59 110.17,49.54 109.44,52.83 108.71,56.12 107.39,59.58 106.08,63.05 104.48,66.69 102.89,70.34 99.88,77.19 96.86,84.03 92.99,90.51 89.12,96.98 83.86,103.90 78.60,110.82 73.19,116.29 67.78,121.76 62.18,125.59 56.59,129.42 49.39,132.55 42.19,135.67 36.32,137.23 30.46,138.78 25.29,139.92 20.12,141.06 15.34,141.14 10.55,141.22 5.80,140.74 1.05,140.26 -4.31,139.09 -9.69,137.92 -15.03,135.87 -20.37,133.82 -27.96,130.09 -35.55,126.37 -38.85,123.64 -42.15,120.91 -46.74,116.89 -51.33,112.87 -54.96,109.13 -58.58,105.38 -61.98,101.31 -65.38,97.25 -66.67,94.46 -67.97,91.68 -69.17,88.75 -70.37,85.83 -71.18,82.70 -72.00,79.58 -72.68,76.08 -73.36,72.57 -73.77,68.58 -74.17,64.59 -74.18,61.20 -74.20,57.81 -74.05,54.88 -73.90,51.94 -73.58,48.83 -73.25,45.72 -72.60,42.67 -71.95,39.62 -70.97,35.93 -69.98,32.25 -68.69,29.97 -67.40,27.69 -65.73,24.59 -64.05,21.49 -62.37,20.02 -60.69,18.54 -58.53,16.75 -56.37,14.95 -53.90,13.62 -51.44,12.30 -48.51,11.04 -45.59,9.79 -42.36,8.72 -39.14,7.64 -35.21,6.05 -31.27,4.46 -25.97,2.71 -20.67,0.96 -10.85,-1.66 -1.04,-4.29 -0.51,-4.35 0.01,-4.41 0.54,-4.34 1.06,-4.28 1.56,-4.09 2.06,-3.90 2.50,-3.59 2.93,-3.29 3.28,-2.89 3.64,-2.49 3.88,-2.02 4.13,-1.55 4.25,-1.03 4.38,-0.51 4.38,0.01 4.38,0.54 4.25,1.06 4.12,1.57 3.87,2.04 3.62,2.51 3.27,2.91 2.91,3.31 2.47,3.61 2.03,3.91 1.54,4.10 1.04,4.29 1.04,4.29 L 1.04,4.29 Z"></path></g><g transform="translate(95.3559761708384 160.30074064864675) rotate(0 12.988952895562306 75.61426149916588)" stroke="none"><path fill="grey" d="M 3.01,-0.80 Q 3.01,-0.80 5.08,7.21 7.15,15.23 9.35,24.54 11.55,33.86 13.28,42.11 15.00,50.36 16.54,59.79 18.07,69.21 18.71,75.13 19.36,81.05 20.16,88.06 20.96,95.08 22.36,106.05 23.76,117.02 24.36,122.78 24.95,128.55 25.99,133.81 27.02,139.06 27.90,143.88 28.78,148.71 28.76,149.21 28.75,149.71 28.57,150.19 28.40,150.66 28.08,151.05 27.77,151.44 27.34,151.71 26.92,151.98 26.43,152.10 25.94,152.22 25.43,152.18 24.93,152.14 24.47,151.94 24.01,151.74 23.63,151.40 23.26,151.06 23.01,150.63 22.76,150.19 22.67,149.69 22.58,149.20 22.65,148.70 22.72,148.20 22.94,147.75 23.17,147.30 23.52,146.94 23.88,146.58 24.33,146.36 24.78,146.14 25.28,146.07 25.78,146.00 26.28,146.10 26.77,146.20 27.21,146.45 27.65,146.70 27.98,147.07 28.32,147.45 28.52,147.91 28.72,148.37 28.76,148.88 28.80,149.38 28.67,149.87 28.55,150.36 28.28,150.78 28.00,151.21 27.61,151.52 27.22,151.83 26.74,152.01 26.27,152.18 25.77,152.19 25.26,152.20 24.78,152.06 24.30,151.91 23.89,151.61 23.48,151.32 23.19,150.91 22.90,150.50 22.75,150.01 22.60,149.53 22.60,149.53 22.60,149.53 22.21,144.81 21.81,140.08 20.73,134.59 19.65,129.11 19.05,123.40 18.44,117.70 17.02,106.70 15.60,95.70 14.77,88.68 13.94,81.66 13.28,75.89 12.61,70.11 11.05,60.83 9.49,51.54 7.71,43.38 5.94,35.22 3.66,25.99 1.38,16.77 -0.81,8.78 -3.01,0.80 -3.07,0.43 -3.12,0.05 -3.08,-0.31 -3.04,-0.69 -2.92,-1.04 -2.79,-1.39 -2.58,-1.71 -2.37,-2.02 -2.10,-2.28 -1.82,-2.53 -1.49,-2.71 -1.16,-2.89 -0.79,-2.99 -0.43,-3.09 -0.05,-3.10 0.31,-3.10 0.68,-3.02 1.05,-2.94 1.38,-2.77 1.72,-2.60 2.01,-2.35 2.29,-2.11 2.51,-1.80 2.73,-1.50 2.87,-1.15 3.01,-0.80 3.01,-0.80 L 3.01,-0.80 Z"></path></g><g transform="translate(121.33388196196302 311.5292636469785) rotate(0 -36.18351163763782 28.761252840173256)" stroke="none"><path fill="grey" d="M 2.45,3.23 Q 2.45,3.23 -4.32,8.14 -11.11,13.06 -17.49,17.76 -23.87,22.47 -30.86,27.88 -37.85,33.30 -42.70,37.17 -47.54,41.04 -51.70,44.76 -55.86,48.48 -58.46,50.59 -61.06,52.71 -62.66,54.56 -64.25,56.41 -66.74,58.24 -69.22,60.08 -69.79,60.34 -70.36,60.59 -70.99,60.65 -71.61,60.71 -72.22,60.57 -72.83,60.43 -73.36,60.10 -73.89,59.77 -74.29,59.29 -74.69,58.81 -74.92,58.22 -75.14,57.64 -75.17,57.01 -75.19,56.39 -75.02,55.78 -74.85,55.18 -74.49,54.67 -74.13,54.16 -73.63,53.78 -73.12,53.41 -72.53,53.22 -71.93,53.02 -71.31,53.03 -70.68,53.04 -70.09,53.25 -69.50,53.45 -69.01,53.84 -68.51,54.22 -68.17,54.75 -67.82,55.27 -67.66,55.87 -67.50,56.48 -67.54,57.10 -67.58,57.73 -67.82,58.31 -68.06,58.89 -68.47,59.36 -68.88,59.83 -69.42,60.15 -69.96,60.46 -70.58,60.59 -71.19,60.72 -71.81,60.64 -72.43,60.57 -73.00,60.30 -73.56,60.03 -74.01,59.59 -74.46,59.15 -74.75,58.60 -75.04,58.04 -75.13,57.42 -75.22,56.80 -75.11,56.19 -75.00,55.57 -74.70,55.02 -74.40,54.47 -73.95,54.05 -73.49,53.62 -73.49,53.62 -73.49,53.62 -71.39,52.43 -69.30,51.25 -67.10,49.36 -64.91,47.47 -62.35,45.82 -59.80,44.16 -55.59,40.25 -51.39,36.35 -46.60,32.33 -41.81,28.31 -34.90,22.70 -28.00,17.08 -21.78,12.14 -15.56,7.20 -9.00,1.98 -2.45,-3.23 -2.03,-3.47 -1.61,-3.72 -1.14,-3.86 -0.67,-4.00 -0.18,-4.02 0.30,-4.04 0.78,-3.95 1.26,-3.85 1.70,-3.64 2.14,-3.44 2.53,-3.13 2.91,-2.82 3.20,-2.43 3.50,-2.04 3.69,-1.59 3.89,-1.14 3.97,-0.66 4.05,-0.18 4.01,0.30 3.97,0.79 3.82,1.25 3.67,1.71 3.41,2.13 3.15,2.54 2.80,2.88 2.45,3.23 2.45,3.23 L 2.45,3.23 Z"></path></g><g transform="translate(122.2616643116462 313.3848283463485) rotate(0 44.99744395962648 18.555646993660048)" stroke="none"><path fill="grey" d="M 1.21,-3.65 Q 1.21,-3.65 8.36,-1.10 15.51,1.45 26.35,5.82 37.19,10.18 44.66,13.12 52.14,16.06 58.59,18.96 65.03,21.87 69.89,24.19 74.76,26.51 78.50,28.60 82.24,30.69 84.62,31.58 87.00,32.47 88.72,33.00 90.43,33.53 90.92,33.81 91.41,34.09 91.79,34.52 92.16,34.95 92.38,35.47 92.60,35.99 92.64,36.56 92.68,37.12 92.54,37.67 92.40,38.22 92.09,38.70 91.78,39.17 91.33,39.52 90.89,39.87 90.35,40.06 89.82,40.25 89.25,40.26 88.69,40.27 88.15,40.10 87.61,39.93 87.15,39.59 86.69,39.26 86.36,38.79 86.04,38.33 85.88,37.79 85.72,37.24 85.74,36.68 85.76,36.11 85.96,35.58 86.16,35.05 86.52,34.61 86.88,34.17 87.36,33.87 87.84,33.57 88.39,33.44 88.94,33.31 89.51,33.36 90.07,33.41 90.59,33.64 91.11,33.87 91.53,34.25 91.95,34.64 92.22,35.13 92.49,35.63 92.60,36.19 92.70,36.74 92.61,37.31 92.53,37.87 92.28,38.37 92.02,38.88 91.61,39.27 91.21,39.67 90.70,39.92 90.19,40.16 89.63,40.24 89.06,40.31 88.51,40.19 87.95,40.08 87.95,40.08 87.95,40.08 86.05,39.24 84.16,38.41 81.82,37.04 79.49,35.66 75.90,33.70 72.32,31.73 67.48,29.52 62.63,27.32 56.28,24.59 49.93,21.86 42.36,19.08 34.80,16.30 24.04,12.22 13.28,8.14 6.03,5.90 -1.21,3.65 -1.63,3.45 -2.05,3.26 -2.41,2.96 -2.78,2.67 -3.05,2.30 -3.33,1.92 -3.52,1.50 -3.70,1.07 -3.77,0.61 -3.85,0.15 -3.81,-0.30 -3.77,-0.76 -3.63,-1.21 -3.48,-1.65 -3.23,-2.04 -2.98,-2.43 -2.65,-2.75 -2.31,-3.08 -1.91,-3.31 -1.51,-3.54 -1.06,-3.67 -0.62,-3.80 -0.15,-3.82 0.30,-3.84 0.76,-3.75 1.21,-3.65 1.21,-3.65 L 1.21,-3.65 Z"></path></g><g transform="translate(103.70601731798615 216.8954639793119) rotate(0 -30.616817539539852 38.0390763370051)" stroke="none"><path fill="grey" d="M 3.10,2.56 Q 3.10,2.56 -2.10,8.57 -7.32,14.59 -14.66,23.00 -22.01,31.40 -30.99,42.38 -39.98,53.35 -44.63,59.07 -49.28,64.78 -51.42,67.96 -53.56,71.14 -55.71,74.46 -57.86,77.79 -58.30,78.19 -58.75,78.59 -59.30,78.82 -59.85,79.06 -60.45,79.11 -61.05,79.15 -61.63,79.01 -62.21,78.86 -62.71,78.54 -63.22,78.21 -63.59,77.75 -63.96,77.28 -64.17,76.72 -64.37,76.15 -64.39,75.56 -64.40,74.96 -64.23,74.39 -64.05,73.81 -63.70,73.33 -63.35,72.84 -62.86,72.49 -62.37,72.15 -61.80,71.97 -61.23,71.80 -60.63,71.81 -60.03,71.83 -59.47,72.04 -58.91,72.25 -58.44,72.62 -57.98,73.00 -57.66,73.51 -57.33,74.01 -57.19,74.59 -57.05,75.17 -57.10,75.77 -57.15,76.37 -57.39,76.92 -57.62,77.47 -58.03,77.91 -58.43,78.36 -58.95,78.65 -59.47,78.94 -60.06,79.05 -60.65,79.16 -61.24,79.08 -61.83,79.00 -62.37,78.73 -62.90,78.47 -63.33,78.04 -63.75,77.62 -64.01,77.08 -64.28,76.54 -64.36,75.95 -64.44,75.36 -64.32,74.77 -64.21,74.18 -63.91,73.66 -63.62,73.14 -63.62,73.14 -63.62,73.14 -61.12,70.41 -58.62,67.68 -56.32,64.35 -54.01,61.02 -49.46,55.19 -44.92,49.37 -36.03,38.20 -27.14,27.03 -20.04,18.48 -12.95,9.94 -8.02,3.69 -3.10,-2.56 -2.75,-2.89 -2.39,-3.23 -1.97,-3.47 -1.55,-3.71 -1.08,-3.84 -0.62,-3.97 -0.13,-3.99 0.34,-4.00 0.82,-3.90 1.29,-3.80 1.73,-3.59 2.17,-3.38 2.54,-3.07 2.91,-2.77 3.20,-2.38 3.49,-1.99 3.68,-1.54 3.87,-1.09 3.94,-0.61 4.02,-0.13 3.97,0.34 3.93,0.82 3.78,1.28 3.62,1.74 3.36,2.15 3.10,2.56 3.10,2.56 L 3.10,2.56 Z"></path></g><g transform="translate(109.27271141608344 215.03989927994917) rotate(0 57.35679368172555 22.31979740386305)" stroke="none"><path fill="grey" d="M 1.18,-3.61 Q 1.18,-3.61 8.77,-0.95 16.36,1.69 29.14,6.65 41.92,11.60 51.81,15.62 61.69,19.63 71.24,23.22 80.79,26.82 86.43,29.34 92.07,31.86 96.65,33.86 101.23,35.87 104.56,37.24 107.89,38.61 111.56,39.85 115.22,41.10 115.75,41.32 116.29,41.54 116.72,41.91 117.16,42.29 117.45,42.79 117.74,43.28 117.86,43.85 117.98,44.41 117.91,44.98 117.84,45.55 117.60,46.07 117.35,46.59 116.95,47.01 116.55,47.42 116.04,47.69 115.53,47.95 114.96,48.04 114.39,48.13 113.82,48.03 113.25,47.93 112.75,47.66 112.24,47.38 111.85,46.96 111.46,46.54 111.22,46.01 110.99,45.49 110.93,44.91 110.87,44.34 111.00,43.78 111.13,43.22 111.43,42.73 111.73,42.24 112.18,41.87 112.62,41.50 113.16,41.29 113.69,41.09 114.27,41.06 114.84,41.03 115.40,41.19 115.95,41.35 116.42,41.68 116.90,42.01 117.24,42.47 117.58,42.93 117.76,43.48 117.94,44.03 117.94,44.60 117.93,45.18 117.74,45.72 117.55,46.27 117.20,46.72 116.85,47.18 116.37,47.50 115.89,47.81 115.33,47.96 114.77,48.11 114.20,48.07 113.62,48.04 113.62,48.04 113.63,48.04 109.51,46.09 105.40,44.15 102.21,42.58 99.02,41.02 94.39,39.06 89.76,37.11 84.25,34.74 78.74,32.37 69.08,28.87 59.42,25.36 49.52,21.53 39.62,17.69 26.91,13.00 14.19,8.32 6.50,5.96 -1.18,3.61 -1.59,3.41 -2.01,3.22 -2.37,2.93 -2.72,2.64 -3.00,2.28 -3.28,1.91 -3.46,1.49 -3.64,1.07 -3.72,0.62 -3.79,0.17 -3.76,-0.28 -3.72,-0.74 -3.58,-1.17 -3.44,-1.61 -3.20,-2.00 -2.95,-2.38 -2.62,-2.70 -2.30,-3.02 -1.90,-3.25 -1.50,-3.49 -1.06,-3.62 -0.63,-3.75 -0.17,-3.77 0.28,-3.79 0.73,-3.70 1.18,-3.61 1.18,-3.61 L 1.18,-3.61 Z"></path></g><g transform="translate(59.74198831610738 66.08495022268107) rotate(0 0.00004999999998744897 0.00005000000000165983)" stroke="none"><path fill="grey" d="M 3.14,-3.14 Q 3.14,-3.14 3.55,-2.55 3.97,-1.97 4.18,-1.28 4.40,-0.59 4.38,0.11 4.36,0.83 4.11,1.51 3.86,2.18 3.41,2.74 2.96,3.30 2.36,3.69 1.75,4.07 1.05,4.25 0.36,4.42 -0.35,4.36 -1.07,4.30 -1.73,4.02 -2.39,3.74 -2.92,3.26 -3.46,2.78 -3.81,2.15 -4.16,1.53 -4.30,0.82 -4.43,0.11 -4.34,-0.59 -4.24,-1.30 -3.92,-1.94 -3.60,-2.59 -3.09,-3.09 -2.59,-3.60 -1.94,-3.92 -1.30,-4.24 -0.59,-4.34 0.12,-4.43 0.82,-4.30 1.53,-4.16 2.15,-3.81 2.78,-3.46 3.26,-2.92 3.74,-2.39 4.02,-1.73 4.31,-1.07 4.36,-0.35 4.42,0.36 4.25,1.05 4.07,1.75 3.69,2.36 3.30,2.96 2.74,3.41 2.18,3.86 1.51,4.11 0.83,4.36 0.11,4.38 -0.60,4.40 -1.28,4.18 -1.97,3.97 -2.55,3.55 -3.14,3.13 -3.14,3.14 -3.14,3.14 -3.47,2.71 -3.80,2.29 -4.02,1.80 -4.24,1.32 -4.33,0.79 -4.43,0.26 -4.40,-0.26 -4.36,-0.80 -4.20,-1.31 -4.04,-1.82 -3.77,-2.28 -3.49,-2.73 -3.11,-3.11 -2.73,-3.49 -2.28,-3.77 -1.82,-4.05 -1.31,-4.20 -0.80,-4.36 -0.26,-4.40 0.26,-4.43 0.79,-4.33 1.32,-4.24 1.80,-4.02 2.29,-3.80 2.71,-3.47 3.14,-3.14 3.14,-3.14 L 3.14,-3.14 Z"></path></g><g transform="translate(129.30109341991465 58.76293915912174) rotate(0 0.00004999999998744897 0.00005000000000165983)" stroke="none"><path fill="grey" d="M 3.14,-3.14 Q 3.14,-3.14 3.55,-2.55 3.97,-1.97 4.18,-1.28 4.40,-0.59 4.38,0.11 4.36,0.83 4.11,1.51 3.86,2.18 3.41,2.74 2.96,3.30 2.36,3.69 1.75,4.07 1.05,4.25 0.36,4.42 -0.35,4.36 -1.07,4.30 -1.73,4.02 -2.39,3.74 -2.92,3.26 -3.46,2.78 -3.81,2.15 -4.16,1.53 -4.30,0.82 -4.43,0.11 -4.34,-0.59 -4.24,-1.30 -3.92,-1.94 -3.60,-2.59 -3.09,-3.09 -2.59,-3.60 -1.94,-3.92 -1.30,-4.24 -0.59,-4.34 0.12,-4.43 0.82,-4.30 1.53,-4.16 2.15,-3.81 2.78,-3.46 3.26,-2.92 3.74,-2.39 4.02,-1.73 4.31,-1.07 4.36,-0.35 4.42,0.36 4.25,1.05 4.07,1.75 3.69,2.36 3.30,2.96 2.74,3.41 2.18,3.86 1.51,4.11 0.83,4.36 0.11,4.38 -0.60,4.40 -1.28,4.18 -1.97,3.97 -2.55,3.55 -3.14,3.13 -3.14,3.14 -3.14,3.14 -3.47,2.71 -3.80,2.29 -4.02,1.80 -4.24,1.32 -4.33,0.79 -4.43,0.26 -4.40,-0.26 -4.36,-0.80 -4.20,-1.31 -4.04,-1.82 -3.77,-2.28 -3.49,-2.73 -3.11,-3.11 -2.73,-3.49 -2.28,-3.77 -1.82,-4.05 -1.31,-4.20 -0.80,-4.36 -0.26,-4.40 0.26,-4.43 0.79,-4.33 1.32,-4.24 1.80,-4.02 2.29,-3.80 2.71,-3.47 3.14,-3.14 3.14,-3.14 L 3.14,-3.14 Z"></path></g><g transform="translate(67.65889457141657 111.12209692514807) rotate(0 34.46264440805294 10.849351017350273)" stroke="none"><path fill="grey" d="M 1.34,-0.78 Q 1.34,-0.78 3.88,3.63 6.42,8.04 9.25,11.29 12.07,14.53 14.35,16.64 16.62,18.75 18.59,19.95 20.56,21.16 23.42,21.63 26.29,22.10 29.73,22.33 33.17,22.56 37.07,21.94 40.98,21.32 45.06,18.93 49.14,16.53 52.45,14.75 55.76,12.96 57.77,11.18 59.79,9.41 60.97,7.94 62.14,6.47 63.37,4.44 64.59,2.42 65.77,0.05 66.95,-2.30 67.11,-2.50 67.27,-2.71 67.49,-2.85 67.71,-2.99 67.96,-3.05 68.21,-3.12 68.47,-3.10 68.73,-3.08 68.96,-2.98 69.20,-2.88 69.40,-2.71 69.59,-2.53 69.72,-2.31 69.85,-2.08 69.90,-1.83 69.95,-1.58 69.92,-1.32 69.88,-1.06 69.77,-0.83 69.66,-0.60 69.47,-0.41 69.29,-0.23 69.06,-0.11 68.83,0.00 68.57,0.03 68.32,0.07 68.06,0.02 67.81,-0.02 67.58,-0.14 67.35,-0.27 67.18,-0.46 67.01,-0.65 66.90,-0.89 66.80,-1.13 66.78,-1.38 66.75,-1.64 66.81,-1.89 66.87,-2.15 67.01,-2.36 67.15,-2.58 67.35,-2.75 67.55,-2.91 67.79,-3.00 68.04,-3.09 68.30,-3.10 68.56,-3.11 68.80,-3.04 69.05,-2.96 69.26,-2.81 69.47,-2.66 69.63,-2.45 69.78,-2.24 69.86,-2.00 69.93,-1.75 69.93,-1.49 69.92,-1.23 69.84,-0.99 69.75,-0.74 69.75,-0.74 69.75,-0.74 68.34,1.54 66.93,3.83 65.60,6.03 64.27,8.24 62.90,9.82 61.53,11.40 59.28,13.34 57.03,15.28 53.75,17.06 50.47,18.84 45.96,21.40 41.45,23.95 37.23,24.60 33.01,25.25 29.41,25.02 25.82,24.78 22.50,24.16 19.18,23.54 16.95,22.19 14.73,20.83 12.31,18.63 9.90,16.43 6.87,13.00 3.84,9.56 1.25,5.17 -1.34,0.78 -1.42,0.61 -1.49,0.44 -1.52,0.25 -1.56,0.06 -1.54,-0.11 -1.53,-0.30 -1.47,-0.48 -1.41,-0.66 -1.31,-0.82 -1.21,-0.98 -1.07,-1.11 -0.94,-1.24 -0.78,-1.33 -0.61,-1.43 -0.43,-1.48 -0.25,-1.54 -0.06,-1.54 0.11,-1.55 0.30,-1.52 0.48,-1.48 0.65,-1.40 0.82,-1.32 0.97,-1.20 1.12,-1.08 1.23,-0.93 1.34,-0.78 1.34,-0.78 L 1.34,-0.78 Z"></path></g></svg>